<?xml version="1.0" standalone="no"?>
<!DOCTYPE svg PUBLIC "-//W3C//DTD SVG 20010904//EN"
 "http://www.w3.org/TR/2001/REC-SVG-20010904/DTD/svg10.dtd">
<svg version="1.0" xmlns="http://www.w3.org/2000/svg"
 width="900.000000pt" height="512.000000pt" viewBox="0 0 900.000000 512.000000"
 preserveAspectRatio="xMidYMid meet">

<g transform="translate(0.000000,512.000000) scale(0.100000,-0.100000)"
fill="#000000" stroke="none">
<path d="M4197 4720 c-585 -32 -1175 -159 -1726 -372 -152 -59 -201 -96 -220
-163 -7 -27 -11 -248 -11 -697 l0 -658 -74 0 c-86 0 -119 -10 -159 -48 -65
-61 -61 21 -61 -1172 0 -1201 -4 -1116 64 -1174 83 -69 197 -53 264 37 20 28
21 41 24 418 l3 389 2199 0 2199 0 3 -389 c3 -377 4 -390 24 -418 67 -90 181
-106 264 -37 68 58 63 -26 64 1174 l0 1085 -23 40 c-38 68 -80 89 -183 93
l-88 4 0 656 c0 428 -4 670 -11 695 -19 71 -58 101 -202 157 -522 203 -1055
326 -1598 370 -187 14 -572 20 -752 10z m685 -365 c357 -29 631 -75 958 -161
132 -35 505 -155 542 -175 17 -9 18 -37 18 -599 l0 -590 -90 0 -90 0 7 28 c16
55 7 253 -16 335 -43 161 -95 241 -173 266 -18 5 -112 17 -208 26 -355 33
-995 13 -1106 -35 -68 -29 -119 -118 -159 -277 -19 -72 -25 -240 -12 -305 l8
-38 -61 0 -62 0 6 28 c27 145 10 292 -54 452 -30 75 -65 119 -114 140 -109 48
-756 68 -1106 35 -96 -9 -190 -21 -208 -27 -78 -24 -130 -104 -174 -265 -22
-81 -31 -278 -15 -335 l7 -28 -90 0 -90 0 0 590 c0 551 1 590 18 599 37 19
413 141 542 175 570 149 1174 206 1722 161z m-928 -1225 c65 -5 120 -11 123
-13 14 -14 21 -129 12 -186 -5 -36 -11 -66 -12 -67 -1 -1 -76 -7 -166 -14
-158 -12 -553 -9 -708 6 l-62 6 -10 50 c-14 62 -14 94 0 157 10 49 11 50 53
56 137 21 530 23 770 5z m1790 0 c70 -5 112 -13 117 -21 15 -26 21 -136 9
-192 l-11 -55 -107 -9 c-138 -10 -586 -10 -724 0 l-106 9 -12 65 c-6 36 -9 77
-6 92 2 14 7 43 11 63 5 34 9 37 48 43 133 20 559 23 781 5z m951 -1072 l0
-413 -2192 -3 c-1206 -1 -2193 1 -2194 5 0 5 -1 191 -2 416 l-2 407 2195 0
2196 0 -1 -412z"/>
</g>
</svg>
